<?xml version="1.0" standalone="no"?>
<!DOCTYPE svg PUBLIC "-//W3C//DTD SVG 20010904//EN"
 "http://www.w3.org/TR/2001/REC-SVG-20010904/DTD/svg10.dtd">
<svg version="1.0" xmlns="http://www.w3.org/2000/svg"
 width="240.000000pt" height="240.000000pt" viewBox="0 0 240.000000 240.000000"
 preserveAspectRatio="xMidYMid meet">
<metadata>
Created by potrace 1.14, written by Peter Selinger 2001-2017
</metadata>
<g transform="translate(0.000000,240.000000) scale(0.100000,-0.100000)"
fill="#000000" stroke="none">
<path d="M560 2312 c-19 -10 -47 -22 -62 -26 -15 -3 -35 -17 -45 -29 l-17 -24
-61 25 c-147 60 -247 20 -241 -96 1 -23 7 -47 12 -52 5 -5 41 -14 79 -20 39
-5 81 -12 95 -15 14 -3 39 -7 55 -9 17 -3 75 -14 130 -26 55 -11 112 -24 128
-27 15 -3 30 -10 34 -16 3 -6 8 -51 9 -101 l4 -91 -93 -1 c-108 -1 -180 -20
-263 -70 -83 -49 -152 -133 -171 -208 -27 -109 -37 -310 -19 -403 3 -18 8 -48
11 -65 11 -64 55 -220 81 -285 57 -141 167 -322 247 -406 51 -52 60 -55 79
-28 13 19 14 18 38 -6 55 -58 217 -175 275 -199 54 -22 65 -19 55 15 l-8 29
49 -24 c73 -37 184 -62 276 -62 46 0 86 4 89 9 3 5 -9 24 -28 41 l-33 31 40
-8 c85 -17 210 -11 305 15 90 24 231 108 280 167 60 71 145 207 227 363 28 52
78 147 111 211 72 136 82 180 47 215 -13 13 -31 25 -40 25 -8 1 -25 2 -37 3
-13 1 -31 -1 -40 -6 -14 -7 -19 -3 -24 19 -3 16 -13 53 -21 83 -7 30 -16 69
-19 85 -3 17 -9 44 -14 60 -5 17 -14 57 -21 90 -6 33 -12 65 -14 70 -1 6 -5
26 -8 45 -10 51 -16 80 -26 128 l-8 42 46 -7 c25 -3 69 -7 96 -7 l50 -1 -1 87
c-1 50 -6 94 -13 102 -6 8 -27 17 -46 20 -24 5 -51 25 -93 68 -57 59 -61 61
-112 62 -48 1 -55 -2 -90 -40 -36 -39 -42 -41 -96 -43 -31 0 -59 -3 -61 -5 -2
-2 -25 2 -51 8 -35 9 -47 17 -48 32 -3 78 -88 127 -166 96 -21 -9 -34 -8 -60
6 -52 26 -143 21 -198 -10 -25 -14 -54 -24 -65 -22 -11 2 -54 6 -95 9 -72 6
-133 14 -136 18 -30 49 -91 119 -122 140 -54 38 -133 46 -182 19z m474 -390
c-9 -66 -17 -162 -18 -224 -1 -78 -11 -77 -20 2 -4 30 -12 73 -17 95 -6 22
-13 49 -15 60 -1 11 -7 37 -12 57 -5 20 -8 38 -7 40 2 2 24 2 48 0 42 -4 45
-5 41 -30z m616 -77 c8 -2 30 -9 49 -14 19 -6 38 -8 42 -5 5 2 16 -3 26 -13
15 -15 19 -38 21 -133 2 -63 5 -136 6 -162 3 -55 -3 -55 -30 1 -10 23 -22 41
-26 41 -5 0 -8 4 -8 9 0 6 -15 36 -34 68 -43 76 -100 183 -109 207 -6 16 -4
17 20 11 16 -4 35 -8 43 -10z m-251 -320 c63 -162 126 -384 113 -397 -12 -12
-123 -24 -182 -19 -50 3 -52 11 -29 101 11 46 18 92 16 102 -3 10 -2 18 2 18
4 0 7 83 6 185 -1 102 2 182 5 178 4 -5 35 -80 69 -168z"/>
</g>
</svg>
